<?xml version="1.0" encoding="UTF-8" standalone="no"?>
<!-- Created with Inkscape (http://www.inkscape.org/) -->

<svg
   width="443.33307mm"
   height="443.65161mm"
   viewBox="0 0 443.33307 443.65161"
   version="1.1"
   id="svg1"
   inkscape:version="1.3.2 (091e20e, 2023-11-25, custom)"
   sodipodi:docname="icon.svg"
   xml:space="preserve"
   xmlns:inkscape="http://www.inkscape.org/namespaces/inkscape"
   xmlns:sodipodi="http://sodipodi.sourceforge.net/DTD/sodipodi-0.dtd"
   xmlns="http://www.w3.org/2000/svg"
   xmlns:svg="http://www.w3.org/2000/svg"
   xmlns:rdf="http://www.w3.org/1999/02/22-rdf-syntax-ns#"
   xmlns:cc="http://creativecommons.org/ns#"
   xmlns:dc="http://purl.org/dc/elements/1.1/"><title
     id="title1">Git PDM icon</title><sodipodi:namedview
     id="namedview1"
     pagecolor="#505050"
     bordercolor="#eeeeee"
     borderopacity="1"
     inkscape:showpageshadow="0"
     inkscape:pageopacity="0"
     inkscape:pagecheckerboard="0"
     inkscape:deskcolor="#505050"
     inkscape:document-units="mm"
     inkscape:zoom="0.48962498"
     inkscape:cx="838.39677"
     inkscape:cy="838.39677"
     inkscape:window-width="1920"
     inkscape:window-height="1017"
     inkscape:window-x="-8"
     inkscape:window-y="-8"
     inkscape:window-maximized="1"
     inkscape:current-layer="layer1" /><defs
     id="defs1"><clipPath
       id="a"><path
         d="M 0,0.113 H 91.887 V 92 H 0 Z m 0,0"
         id="path1-0" /></clipPath></defs><g
     inkscape:label="Layer 1"
     inkscape:groupmode="layer"
     id="layer1"
     transform="translate(0.0176389,0.01754005)"><path
       style="color:#000000;display:inline;fill:#b9375e;fill-opacity:1;-inkscape-stroke:none"
       d="m 218.86778,0.04289144 c -4.09663,-0.09260366 -8.32976,-0.03972226 -10.30532,0.20722249 -6.87916,0.84665917 -11.57141,2.64555937 -14.07614,5.36194657 -2.8575,3.1044369 -3.2806,5.4684405 -2.57504,15.3814905 0.52916,7.866936 0.24694,10.547645 -1.5875,14.39292 -2.6811,5.714994 -8.57247,9.983889 -18.13274,13.158886 -8.14916,2.716387 -16.26344,3.668923 -21.20232,2.504757 -5.82083,-1.41111 -9.98324,-4.938758 -13.72268,-11.676807 -4.23333,-7.584714 -4.97437,-8.749338 -6.56187,-10.336836 -3.56305,-3.563053 -7.65512,-4.162535 -13.93455,-2.04587 -7.79639,2.64583 -19.226466,10.05393 -23.53035,15.275036 -2.504719,3.069163 -3.10472,4.586218 -3.10472,8.043437 0,3.704163 0.776253,5.4682 5.256527,12.135693 3.563049,5.291661 4.938923,7.867051 5.679753,10.68927 2.01083,7.655271 -1.869931,16.545393 -11.32437,26.035104 -10.477485,10.512769 -19.084903,13.123019 -28.539343,8.678019 -1.164159,-0.56445 -4.339373,-2.32827 -7.09104,-3.98632 -5.891384,-3.52777 -8.11386,-4.339193 -11.253577,-4.092253 -2.892777,0.246953 -5.362286,1.587713 -8.184513,4.445203 -4.303876,4.33917 -10.30122,14.71074 -12.805937,22.11907 -0.987779,2.96332 -1.19941,4.05695 -1.19941,6.87916 -0.0353,2.96333 0.0705,3.56292 0.952397,5.32681 1.622768,3.31611 3.84535,5.04462 11.359513,8.8899 3.704166,1.86972 7.620071,4.12756 8.71368,5.00951 6.632213,5.32694 8.219953,14.5696 4.833297,28.08097 -2.681108,10.6186 -6.949619,17.53351 -12.594064,20.39101 -4.021666,2.04611 -5.397926,2.25746 -14.711246,2.32802 -6.561664,0.0705 -8.854308,0.21176 -10.159587,0.6351 C 2.4696866,205.99 0,211.81107 0,225.25188 c 0,15.62805 2.8928198,23.67109 9.3839233,26.14053 2.0108277,0.74084 2.3283057,0.7761 11.2535767,0.52916 10.37166,-0.28222 12.311877,-0.035 16.157153,2.04639 5.679715,2.99861 10.654136,10.97126 13.299964,21.20181 2.328337,9.10165 2.15194,15.73392 -0.529167,21.02559 -2.046108,4.05694 -5.115524,6.66743 -12.770797,10.86548 -6.067774,3.38666 -8.325484,5.1856 -9.807153,7.86671 -0.917219,1.69333 -1.058333,2.22298 -1.058333,4.90409 0.0353,3.66889 0.811529,6.24417 3.669026,12.17083 1.904998,3.91583 5.997329,10.51244 8.043437,13.05244 0.49389,0.56445 2.010528,2.22278 3.386357,3.63388 4.691945,4.7625 9.277991,6.13796 14.040486,4.19768 1.093609,-0.45861 4.409727,-2.46899 7.408334,-4.47983 7.725832,-5.18582 10.548198,-6.35 15.310693,-6.35 5.185825,0 10.195322,2.11623 16.792257,7.12566 4.833047,3.66889 8.290253,7.23195 11.253573,11.64167 3.21028,4.79778 4.4449,8.78428 4.1274,13.3351 -0.28222,4.09222 -1.76368,7.72594 -5.60896,13.86427 -0.98778,1.5875 -2.36351,4.0923 -3.06906,5.53868 -1.12889,2.36361 -1.27021,2.96317 -1.27021,5.46789 0.0353,3.52777 0.84664,5.36233 3.84524,8.5726 5.36223,5.71499 14.88745,11.57121 23.49521,14.39344 2.43417,0.77611 3.66872,0.98753 6.52622,0.98753 3.06916,0.0353 3.73962,-0.0705 5.11545,-0.81132 2.92805,-1.51694 4.51563,-3.63352 8.18451,-11.00656 2.04612,-4.09222 4.09188,-7.69083 5.11493,-8.92555 3.45722,-4.26861 8.14928,-6.49087 14.39344,-6.80837 3.98638,-0.21167 13.72323,0.67004 16.75712,1.5167 7.58471,2.08139 13.72302,5.85626 16.54524,10.01903 2.89278,4.37444 3.73923,8.36084 3.49229,16.40416 -0.35278,10.15999 0.9173,13.89979 5.53868,16.5809 1.905,1.09361 7.47883,2.82206 10.86549,3.35122 3.91584,0.635 14.88706,0.24698 19.22622,-0.67024 6.38527,-1.34056 10.40739,-4.05682 11.92433,-7.97264 0.77611,-2.01083 0.88161,-6.10324 0.35244,-14.64045 -0.49389,-8.3961 0.77607,-12.27668 5.43274,-16.93334 3.06916,-3.06916 4.69195,-4.09226 11.64167,-7.26725 6.56166,-2.96334 8.29027,-3.5632 12.17083,-4.1982 9.0311,-1.48166 15.38132,0.10615 20.32021,5.08031 2.18721,2.2225 3.42211,4.09205 7.76128,11.81789 1.86972,3.35137 4.47987,6.31448 6.45542,7.33753 2.82222,1.44639 8.60782,1.12934 14.14642,-0.77566 5.43278,-1.86972 14.1816,-7.37353 18.80299,-11.78326 2.2225,-2.11666 3.21041,-3.38639 4.19819,-5.36195 1.19945,-2.46943 1.23459,-2.71626 1.09348,-5.3268 -0.24694,-3.56306 -0.88157,-4.93907 -5.25601,-11.46545 -3.88055,-5.78556 -4.93903,-7.76088 -5.7857,-11.04171 -0.70556,-2.78694 -0.67031,-5.15097 0.14108,-8.36124 0.91722,-3.63361 2.29314,-6.2087 6.59701,-12.48813 9.17222,-13.40555 19.79064,-18.90872 29.95063,-15.52205 1.69333,0.56444 4.97424,2.22227 8.18451,4.16254 6.91445,4.09222 9.13723,5.00951 12.10056,5.00951 4.2686,0.0353 7.69022,-2.32834 13.05243,-8.99583 4.40972,-5.50334 7.65553,-11.46525 9.5958,-17.60358 0.635,-2.04611 0.81132,-3.4574 0.81132,-6.17378 0,-3.13972 -0.10573,-3.70403 -0.9524,-5.32681 -1.65805,-3.13972 -4.19827,-5.08011 -11.32437,-8.5726 -3.84528,-1.905 -7.26709,-3.84539 -8.50181,-4.86844 -3.88055,-3.13973 -6.06761,-7.40817 -6.52622,-12.87622 -0.28222,-3.28083 0.10567,-11.67705 0.70539,-14.9226 0.91722,-5.00944 3.7392,-12.13532 6.2792,-15.8042 1.5875,-2.32833 4.65687,-5.00935 7.09104,-6.24407 3.45722,-1.72861 5.89123,-2.11666 14.46372,-2.11666 9.77194,0 11.88854,-0.52949 14.56965,-3.49281 2.82222,-3.10445 3.881,-6.98504 4.516,-16.26309 0.9525,-14.35804 -2.04615,-24.16524 -8.32559,-27.12858 -2.32833,-1.09361 -5.11569,-1.26969 -12.59458,-0.74052 -7.97277,0.56444 -10.75965,0.28208 -14.56965,-1.55236 -4.65667,-2.18723 -7.65511,-5.71511 -11.28872,-13.33511 -2.18721,-4.62138 -3.81003,-9.98368 -4.62142,-15.59284 -1.51694,-10.40694 1.41122,-17.67397 9.10177,-22.5423 1.02305,-0.67028 3.98622,-2.36385 6.52622,-3.77496 5.36221,-2.92806 7.54961,-4.86841 8.81961,-7.65535 1.83444,-4.02166 1.09375,-8.46661 -2.68097,-16.15715 -6.56166,-13.299717 -14.3232,-21.342883 -20.53208,-21.342883 -3.21028,0 -5.36185,0.952298 -11.60601,5.079794 -3.21027,2.116666 -6.66744,4.23347 -7.69049,4.72736 -9.31333,4.268609 -18.69767,1.129119 -29.916,-9.98337 -7.58471,-7.514159 -10.72441,-13.370458 -10.72441,-19.932117 0,-4.621384 1.02326,-7.408583 5.50354,-14.887463 3.77472,-6.244161 4.51536,-8.148756 4.55063,-11.21792 0,-2.257776 -0.14074,-2.963611 -1.02268,-4.69222 -2.11667,-4.162774 -8.50237,-9.172124 -17.35708,-13.652397 -6.73804,-3.421938 -10.75969,-4.69208 -14.95774,-4.72736 -6.31472,-0.0353 -8.3255,1.763761 -13.51132,12.205973 -2.89278,5.820827 -3.77476,7.267397 -5.67976,9.348784 -5.11526,5.538605 -12.48811,7.267185 -23.21254,5.432743 -12.91165,-2.222498 -22.15431,-7.19657 -25.43514,-13.652397 -1.90499,-3.774719 -2.08159,-4.974141 -2.32854,-14.957743 C 239.35976,10.233703 239.28906,9.4223023 238.54823,7.7995239 236.92545,4.2011975 233.57409,1.8726427 228.35299,0.70848389 226.92424,0.37334422 222.9644,0.1354951 218.86778,0.04289144 Z"
       id="path6" /><path
       d="m 106.261,4.94909 c 2.603,0.08903 4.822,0.1847 6.723,0.28699 1.901,0.1023 3.483,0.21123 4.81,0.32679 1.326,0.11557 2.397,0.23776 3.276,0.36659 0.88,0.12883 1.567,0.26429 2.125,0.40638 0.559,0.1421 0.989,0.29082 1.354,0.44618 0.366,0.15536 0.666,0.31735 0.964,0.48598 0.414,0.48969 0.814,0.98392 1.199,1.48271 0.385,0.49879 0.757,1.00213 1.114,1.50999 0.357,0.5079 0.7,1.0204 1.029,1.5374 0.329,0.5169 0.643,1.0385 0.944,1.5646 0.301,0.5261 0.587,1.0567 0.86,1.5919 0.272,0.5352 0.53,1.075 0.774,1.6193 0.245,0.5443 0.475,1.0931 0.691,1.6465 0.216,0.5534 0.417,1.1113 0.605,1.6738 0.188,0.5625 0.361,1.1296 0.521,1.7012 0.159,0.5716 0.305,1.1478 0.436,1.7285 0.131,0.5807 0.248,1.1659 0.351,1.7557 0.103,0.5898 0.192,1.1842 0.266,1.7831 0.075,0.5989 0.136,1.2024 0.182,1.8104 0.047,0.608 0.079,1.2205 0.097,1.8376 0.019,0.6171 0.023,1.2388 0.013,1.865 -0.01,0.6262 -0.034,1.257 -0.073,1.8923 -1.104,1.7983 -2.193,3.6021 -3.265,5.4113 -1.072,1.8092 -2.128,3.6238 -3.168,5.4439 -1.04,1.8201 -2.063,3.6456 -3.07,5.4765 -1.008,1.831 -1.999,3.6674 -2.973,5.5093 -0.975,1.8418 -1.933,3.6891 -2.875,5.5419 -0.943,1.8527 -1.868,3.7109 -2.778,5.5745 -0.91,1.8636 -1.803,3.7327 -2.68,5.6072 -0.877,1.8745 -1.738,3.7545 -2.583,5.6399 -0.844,1.8854 -1.673,3.7763 -2.485,5.6726 -0.812,1.8963 -1.608,3.798 -2.387,5.7052 -0.78,1.9072 -1.543,3.8198 -2.29,5.7379 -0.747,1.9181 -1.478,3.8416 -2.193,5.7708 -0.714,1.929 -1.412,3.863 -2.0944,5.803 -0.682,1.94 -1.3477,3.885 -1.9972,5.836 -0.6495,1.951 -1.2827,3.907 -1.8997,5.869 -0.6169,1.961 -1.2176,3.928 -1.802,5.901 -0.6225,-0.636 -1.2223,-1.28 -1.7995,-1.932 -0.5772,-0.652 -1.1318,-1.312 -1.6638,-1.979 -0.532,-0.667 -1.0414,-1.342 -1.5282,-2.025 -0.4867,-0.683 -0.9509,-1.374 -1.3925,-2.072 -0.4415,-0.698 -0.8604,-1.405 -1.2568,-2.118 -0.3963,-0.714 -0.77,-1.436 -1.1212,-2.165 -0.3511,-0.73 -0.6796,-1.467 -0.9855,-2.212 -0.3058,-0.745 -0.5891,-1.497 -0.8498,-2.258 -0.2607,-0.76 -0.4987,-1.528 -0.7142,-2.304 -0.2154,-0.776 -0.4083,-1.56 -0.5785,-2.351 -0.1702,-0.792 -0.3178,-1.591 -0.4428,-2.398 -0.125,-0.807 -0.2274,-1.6217 -0.3072,-2.4442 -0.0798,-0.8225 -0.1369,-1.6527 -0.1715,-2.4907 -0.0345,-0.8379 -0.0465,-1.6837 -0.0358,-2.5371 0.0107,-0.8535 0.044,-1.7148 0.0999,-2.5838 0.0559,-0.8689 0.1344,-1.7457 0.2355,-2.6302 l 0.4063,-1.6169 0.4063,-1.6169 0.4242,-1.6102 0.4243,-1.6103 0.4422,-1.6037 0.4422,-1.6036 0.4602,-1.5971 0.4601,-1.597 0.4782,-1.5905 0.4781,-1.5904 0.4962,-1.5839 0.4961,-1.5838 0.5141,-1.5772 0.5142,-1.5773 0.5321,-1.5706 L 88.9767,62.768 88.9141,62.6743 88.8516,62.5805 88.789,62.4868 88.7265,62.393 88.6639,62.2993 88.6013,62.2055 88.5388,62.1118 88.4762,62.018 88.4137,61.9243 88.3511,61.8305 88.2885,61.7368 88.226,61.643 88.1634,61.5493 88.1008,61.4555 88.0383,61.3618 87.9757,61.268 c -0.7468,0.4856 -1.4867,0.9785 -2.2196,1.4789 -0.733,0.5004 -1.459,1.0082 -2.1781,1.5234 -0.7191,0.5153 -1.4313,1.0379 -2.1365,1.5679 -0.7053,0.5301 -1.4036,1.0675 -2.095,1.6124 -0.6914,0.5449 -1.3759,1.0972 -2.0535,1.6569 -0.6775,0.5597 -1.3482,1.1268 -2.0119,1.7013 -0.6637,0.5745 -1.3205,1.1564 -1.9704,1.7458 -0.6498,0.5893 -1.2928,1.1861 -1.9288,1.7903 -0.636,0.6041 -1.2651,1.2157 -1.8873,1.8347 -0.6222,0.619 -1.2375,1.2454 -1.8458,1.8792 -0.6083,0.6339 -1.2098,1.2751 -1.8043,1.9237 -0.5945,0.6487 -1.182,1.3047 -1.7627,1.9682 -0.5807,0.6635 -1.1544,1.3343 -1.7212,2.0126 -0.5668,0.6783 -1.1267,1.364 -1.6797,2.0571 -0.553,0.6931 -1.0991,1.3937 -1.6382,2.1016 -0.5391,0.7079 -1.0714,1.4233 -1.5967,2.146 -2.183,2.7758 -4.2575,5.5682 -6.2237,8.3773 -1.9662,2.8087 -3.8239,5.6347 -5.5732,8.4767 -1.7494,2.843 -3.3903,5.701 -4.9228,8.577 -1.5325,2.875 -2.9567,5.767 -4.2723,8.676 -1.3157,2.909 -2.523,5.834 -3.6219,8.776 -1.0989,2.942 -2.0893,5.901 -2.9714,8.876 -0.882,2.975 -1.6556,5.967 -2.3208,8.975 -0.6653,3.009 -1.2221,6.034 -1.6705,9.075 -0.4483,3.042 -0.7883,6.1 -1.0199,9.175 -0.2315,3.075 -0.3547,6.167 -0.3694,9.275 -0.0147,3.108 0.079,6.233 0.2811,9.374 0.2021,3.141 0.5126,6.299 0.9316,9.474 0.4189,3.175 0.9463,6.366 1.5821,9.574 0.6358,3.208 1.38,6.432 2.2326,9.673 0.8526,3.241 1.8136,6.499 2.8831,9.773 1.0695,3.274 2.2473,6.565 3.5336,9.873 -0.0966,0.122 -0.195,0.238 -0.2952,0.348 -0.1002,0.11 -0.2021,0.215 -0.3059,0.314 -0.1037,0.099 -0.2093,0.192 -0.3166,0.28 -0.1073,0.088 -0.2164,0.17 -0.3273,0.246 -0.1108,0.077 -0.2235,0.148 -0.3379,0.213 -0.1145,0.065 -0.2307,0.124 -0.3487,0.178 -0.118,0.054 -0.2378,0.102 -0.3593,0.145 -0.1216,0.042 -0.2449,0.079 -0.37,0.11 -0.1252,0.032 -0.2521,0.057 -0.3808,0.077 -0.1286,0.02 -0.2591,0.035 -0.3914,0.043 -0.1322,0.009 -0.2662,0.012 -0.4021,0.009 -0.1358,-0.002 -0.2734,-0.011 -0.4127,-0.025 -0.1394,-0.014 -0.2806,-0.033 -0.4235,-0.058 -0.1429,-0.026 -0.2877,-0.057 -0.4342,-0.093 -0.1464,-0.037 -0.2947,-0.079 -0.4448,-0.127 -0.1501,-0.047 -0.3019,-0.101 -0.4555,-0.16 -0.713,-0.601 -1.4095,-1.213 -2.0894,-1.834 -0.6799,-0.621 -1.3433,-1.252 -1.9901,-1.894 -0.6469,-0.641 -1.2772,-1.292 -1.891,-1.953 -0.6138,-0.661 -1.211,-1.332 -1.7917,-2.013 -0.5807,-0.68 -1.1448,-1.371 -1.6925,-2.072 -0.5476,-0.701 -1.0787,-1.411 -1.5932,-2.132 -0.5145,-0.721 -1.0125,-1.451 -1.494,-2.192 -0.4814,-0.74 -0.9464,-1.491 -1.3947,-2.251 -0.4484,-0.761 -0.8802,-1.531 -1.2955,-2.311 -0.4153,-0.781 -0.814,-1.571 -1.1962,-2.371 -0.3822,-0.8 -0.7479,-1.61 -1.097,-2.43 -0.3491,-0.82 -0.6816,-1.65 -0.9977,-2.49 -0.316,-0.84 -0.6154,-1.69 -0.8984,-2.55 -0.2829,-0.86 -0.54925,-1.73 -0.79907,-2.609 -0.24982,-0.88 -0.4831,-1.77 -0.69982,-2.669 -0.21672,-0.9 -0.4169,-1.809 -0.60052,-2.729 -0.46181,-2.053 -0.88824,-4.104 -1.27929,-6.154 -0.39105,-2.049 -0.74672,-4.096 -1.06701,-6.141 -0.32029,-2.045 -0.60521,-4.089 -0.85474,-6.13 -0.24954,-2.041 -0.46369,-4.08 -0.64247,-6.117 -0.17877,-2.037 -0.32217,-4.072 -0.43018,-6.105 -0.10802,-2.033 -0.18066,-4.064 -0.21791,-6.093 -0.03726,-2.029 -0.03914,-4.056 -0.00563,-6.081 0.0335,-2.025 0.10239,-4.047 0.20665,-6.068 0.10427,-2.021 0.24391,-4.04 0.41894,-6.057 0.17502,-2.016 0.38543,-4.031 0.63122,-6.044 0.24578,-2.013 0.52695,-4.023 0.8435,-6.032 0.31655,-2.009 0.66848,-4.015 1.0558,-6.02 0.38731,-2.005 0.81,-4.007 1.26808,-6.008 0.45808,-2 0.95153,-3.999 1.48037,-5.995 0.52888,-1.997 1.09308,-3.991 1.69268,-5.984 0.5996,-1.992 1.2346,-3.983 1.9049,-5.971 0.3493,-0.803 0.7054,-1.601 1.0683,-2.395 0.363,-0.794 0.7327,-1.583 1.1094,-2.3673 0.3766,-0.7845 0.76,-1.5643 1.1504,-2.3396 0.3903,-0.7752 0.7874,-1.5459 1.1914,-2.3119 0.404,-0.7661 0.8149,-1.5275 1.2326,-2.2843 0.4177,-0.7568 0.8422,-1.509 1.2736,-2.2566 0.4314,-0.7476 0.8696,-1.4906 1.3147,-2.229 0.4451,-0.7384 0.897,-1.4721 1.3558,-2.2013 0.4588,-0.7292 0.9244,-1.4537 1.3969,-2.1736 0.4724,-0.72 0.9518,-1.4353 1.4379,-2.146 0.4862,-0.7107 0.9792,-1.4169 1.4791,-2.1184 0.4999,-0.7015 1.0066,-1.3984 1.5201,-2.0907 0.5136,-0.6922 1.034,-1.3799 1.5613,-2.063 0.5273,-0.6831 1.0614,-1.3615 1.6023,-2.0354 0.541,-0.6739 1.0888,-1.3431 1.6435,-2.0078 0.5547,-0.6646 1.1162,-1.3247 1.6845,-1.9801 l 2.266,-2.1547 2.266,-2.1548 2.2659,-2.1548 2.266,-2.1547 2.2776,-2.1349 2.2777,-2.1349 2.2776,-2.1349 2.2777,-2.1349 2.2893,-2.1151 2.2893,-2.1151 2.2894,-2.115 2.2893,-2.1151 2.301,-2.0953 2.3009,-2.0953 2.301,-2.0952 2.301,-2.0953 -0.8071,-0.1476 -0.8072,-0.1475 -0.8089,-0.1322 -0.8089,-0.1322 -0.8107,-0.1168 -0.8106,-0.1168 -0.8125,-0.1015 -0.8124,-0.1014 -0.8142,-0.0861 -0.8142,-0.086 -0.816,-0.0707 -0.8159,-0.0707 -0.8177,-0.0553 -0.8177,-0.0553 -0.8195,-0.04 L 58.947,33.768 C 58.6863,33.6743 58.4309,33.5753 58.1806,33.4711 57.9303,33.367 57.6853,33.2576 57.4455,33.143 57.2057,33.0284 56.971,32.9087 56.7416,32.7837 56.5122,32.6587 56.2881,32.5285 56.0691,32.3931 55.8501,32.2576 55.6364,32.117 55.4278,31.9712 55.2193,31.8254 55.016,31.6743 54.8179,31.5181 54.6198,31.3618 54.4269,31.2004 54.2392,31.0337 54.0515,30.8671 53.8691,30.6952 53.6918,30.5181 53.5146,30.341 53.3425,30.1588 53.1757,29.9713 53.0089,29.7838 52.8473,29.5911 52.6909,29.3931 52.5345,29.1952 52.3833,28.9921 52.2374,28.7838 52.0914,28.5754 51.9507,28.3619 51.8151,28.1431 51.6796,27.9244 51.5493,27.7004 51.4242,27.4713 51.2991,27.2421 51.1792,27.0077 51.0645,26.7681 50.9499,26.5285 50.8404,26.2837 50.7362,26.0337 50.6319,25.7837 50.5329,25.5284 50.4391,25.268 50.3172,25.0099 50.1983,24.7511 50.0825,24.4914 49.9666,24.2318 49.8539,23.9713 49.7441,23.71 49.6344,23.4488 49.5278,23.1867 49.4242,22.9238 49.3206,22.661 49.22,22.3973 49.1225,22.1328 49.025,21.8684 48.9306,21.6031 48.8392,21.3371 48.7479,21.071 48.6596,20.8042 48.5743,20.5365 48.489,20.2688 48.4068,20.0004 48.3277,19.7311 48.2486,19.4619 48.1725,19.1918 48.0995,18.921 c -0.073,-0.2708 -0.143,-0.5425 -0.2099,-0.8149 -0.0669,-0.2725 -0.1307,-0.5457 -0.1915,-0.8197 -0.0607,-0.274 -0.1185,-0.5489 -0.1731,-0.8245 -0.0546,-0.2756 -0.1062,-0.552 -0.1547,-0.8292 -0.0486,-0.2773 -0.094,-0.5553 -0.1364,-0.8341 -0.0424,-0.2788 -0.0817,-0.5584 -0.118,-0.8387 -0.0363,-0.2804 -0.0695,-0.5616 -0.0996,-0.8436 -0.0301,-0.282 -0.0572,-0.5647 -0.0812,-0.8483 l 3.9875,-0.3104 3.9875,-0.3104 3.9743,-0.3645 3.9744,-0.3645 3.9611,-0.4187 3.9612,-0.4187 3.948,-0.47292 L 78.6771,9.135 82.6119,8.60794 86.5467,8.08087 90.4683,7.49961 94.39,6.91834 98.2985,6.28287 102.207,5.64739 106.102,4.9577 c 0,0 -2.443,-0.09764 0.159,-0.00861 z"
       fill="#030303"
       fill-rule="evenodd"
       opacity="1"
       stroke="none"
       id="path1-7"
       style="clip-rule:evenodd;fill:#434343;fill-opacity:1;fill-rule:nonzero;stroke-linecap:round;stroke-linejoin:round;stroke-miterlimit:10"
       transform="matrix(-0.12495034,-0.58784514,-0.58784514,0.12495034,345.08133,334.57801)" /><path
       d="m 106.261,4.94909 c 2.603,0.08903 4.822,0.1847 6.723,0.28699 1.901,0.1023 3.483,0.21123 4.81,0.32679 1.326,0.11557 2.397,0.23776 3.276,0.36659 0.88,0.12883 1.567,0.26429 2.125,0.40638 0.559,0.1421 0.989,0.29082 1.354,0.44618 0.366,0.15536 0.666,0.31735 0.964,0.48598 0.414,0.48969 0.814,0.98392 1.199,1.48271 0.385,0.49879 0.757,1.00213 1.114,1.50999 0.357,0.5079 0.7,1.0204 1.029,1.5374 0.329,0.5169 0.643,1.0385 0.944,1.5646 0.301,0.5261 0.587,1.0567 0.86,1.5919 0.272,0.5352 0.53,1.075 0.774,1.6193 0.245,0.5443 0.475,1.0931 0.691,1.6465 0.216,0.5534 0.417,1.1113 0.605,1.6738 0.188,0.5625 0.361,1.1296 0.521,1.7012 0.159,0.5716 0.305,1.1478 0.436,1.7285 0.131,0.5807 0.248,1.1659 0.351,1.7557 0.103,0.5898 0.192,1.1842 0.266,1.7831 0.075,0.5989 0.136,1.2024 0.182,1.8104 0.047,0.608 0.079,1.2205 0.097,1.8376 0.019,0.6171 0.023,1.2388 0.013,1.865 -0.01,0.6262 -0.034,1.257 -0.073,1.8923 -1.104,1.7983 -2.193,3.6021 -3.265,5.4113 -1.072,1.8092 -2.128,3.6238 -3.168,5.4439 -1.04,1.8201 -2.063,3.6456 -3.07,5.4765 -1.008,1.831 -1.999,3.6674 -2.973,5.5093 -0.975,1.8418 -1.933,3.6891 -2.875,5.5419 -0.943,1.8527 -1.868,3.7109 -2.778,5.5745 -0.91,1.8636 -1.803,3.7327 -2.68,5.6072 -0.877,1.8745 -1.738,3.7545 -2.583,5.6399 -0.844,1.8854 -1.673,3.7763 -2.485,5.6726 -0.812,1.8963 -1.608,3.798 -2.387,5.7052 -0.78,1.9072 -1.543,3.8198 -2.29,5.7379 -0.747,1.9181 -1.478,3.8416 -2.193,5.7708 -0.714,1.929 -1.412,3.863 -2.0944,5.803 -0.682,1.94 -1.3477,3.885 -1.9972,5.836 -0.6495,1.951 -1.2827,3.907 -1.8997,5.869 -0.6169,1.961 -1.2176,3.928 -1.802,5.901 -0.6225,-0.636 -1.2223,-1.28 -1.7995,-1.932 -0.5772,-0.652 -1.1318,-1.312 -1.6638,-1.979 -0.532,-0.667 -1.0414,-1.342 -1.5282,-2.025 -0.4867,-0.683 -0.9509,-1.374 -1.3925,-2.072 -0.4415,-0.698 -0.8604,-1.405 -1.2568,-2.118 -0.3963,-0.714 -0.77,-1.436 -1.1212,-2.165 -0.3511,-0.73 -0.6796,-1.467 -0.9855,-2.212 -0.3058,-0.745 -0.5891,-1.497 -0.8498,-2.258 -0.2607,-0.76 -0.4987,-1.528 -0.7142,-2.304 -0.2154,-0.776 -0.4083,-1.56 -0.5785,-2.351 -0.1702,-0.792 -0.3178,-1.591 -0.4428,-2.398 -0.125,-0.807 -0.2274,-1.6217 -0.3072,-2.4442 -0.0798,-0.8225 -0.1369,-1.6527 -0.1715,-2.4907 -0.0345,-0.8379 -0.0465,-1.6837 -0.0358,-2.5371 0.0107,-0.8535 0.044,-1.7148 0.0999,-2.5838 0.0559,-0.8689 0.1344,-1.7457 0.2355,-2.6302 l 0.4063,-1.6169 0.4063,-1.6169 0.4242,-1.6102 0.4243,-1.6103 0.4422,-1.6037 0.4422,-1.6036 0.4602,-1.5971 0.4601,-1.597 0.4782,-1.5905 0.4781,-1.5904 0.4962,-1.5839 0.4961,-1.5838 0.5141,-1.5772 0.5142,-1.5773 0.5321,-1.5706 L 88.9767,62.768 88.9141,62.6743 88.8516,62.5805 88.789,62.4868 88.7265,62.393 88.6639,62.2993 88.6013,62.2055 88.5388,62.1118 88.4762,62.018 88.4137,61.9243 88.3511,61.8305 88.2885,61.7368 88.226,61.643 88.1634,61.5493 88.1008,61.4555 88.0383,61.3618 87.9757,61.268 c -0.7468,0.4856 -1.4867,0.9785 -2.2196,1.4789 -0.733,0.5004 -1.459,1.0082 -2.1781,1.5234 -0.7191,0.5153 -1.4313,1.0379 -2.1365,1.5679 -0.7053,0.5301 -1.4036,1.0675 -2.095,1.6124 -0.6914,0.5449 -1.3759,1.0972 -2.0535,1.6569 -0.6775,0.5597 -1.3482,1.1268 -2.0119,1.7013 -0.6637,0.5745 -1.3205,1.1564 -1.9704,1.7458 -0.6498,0.5893 -1.2928,1.1861 -1.9288,1.7903 -0.636,0.6041 -1.2651,1.2157 -1.8873,1.8347 -0.6222,0.619 -1.2375,1.2454 -1.8458,1.8792 -0.6083,0.6339 -1.2098,1.2751 -1.8043,1.9237 -0.5945,0.6487 -1.182,1.3047 -1.7627,1.9682 -0.5807,0.6635 -1.1544,1.3343 -1.7212,2.0126 -0.5668,0.6783 -1.1267,1.364 -1.6797,2.0571 -0.553,0.6931 -1.0991,1.3937 -1.6382,2.1016 -0.5391,0.7079 -1.0714,1.4233 -1.5967,2.146 -2.183,2.7758 -4.2575,5.5682 -6.2237,8.3773 -1.9662,2.8087 -3.8239,5.6347 -5.5732,8.4767 -1.7494,2.843 -3.3903,5.701 -4.9228,8.577 -1.5325,2.875 -2.9567,5.767 -4.2723,8.676 -1.3157,2.909 -2.523,5.834 -3.6219,8.776 -1.0989,2.942 -2.0893,5.901 -2.9714,8.876 -0.882,2.975 -1.6556,5.967 -2.3208,8.975 -0.6653,3.009 -1.2221,6.034 -1.6705,9.075 -0.4483,3.042 -0.7883,6.1 -1.0199,9.175 -0.2315,3.075 -0.3547,6.167 -0.3694,9.275 -0.0147,3.108 0.079,6.233 0.2811,9.374 0.2021,3.141 0.5126,6.299 0.9316,9.474 0.4189,3.175 0.9463,6.366 1.5821,9.574 0.6358,3.208 1.38,6.432 2.2326,9.673 0.8526,3.241 1.8136,6.499 2.8831,9.773 1.0695,3.274 2.2473,6.565 3.5336,9.873 -0.0966,0.122 -0.195,0.238 -0.2952,0.348 -0.1002,0.11 -0.2021,0.215 -0.3059,0.314 -0.1037,0.099 -0.2093,0.192 -0.3166,0.28 -0.1073,0.088 -0.2164,0.17 -0.3273,0.246 -0.1108,0.077 -0.2235,0.148 -0.3379,0.213 -0.1145,0.065 -0.2307,0.124 -0.3487,0.178 -0.118,0.054 -0.2378,0.102 -0.3593,0.145 -0.1216,0.042 -0.2449,0.079 -0.37,0.11 -0.1252,0.032 -0.2521,0.057 -0.3808,0.077 -0.1286,0.02 -0.2591,0.035 -0.3914,0.043 -0.1322,0.009 -0.2662,0.012 -0.4021,0.009 -0.1358,-0.002 -0.2734,-0.011 -0.4127,-0.025 -0.1394,-0.014 -0.2806,-0.033 -0.4235,-0.058 -0.1429,-0.026 -0.2877,-0.057 -0.4342,-0.093 -0.1464,-0.037 -0.2947,-0.079 -0.4448,-0.127 -0.1501,-0.047 -0.3019,-0.101 -0.4555,-0.16 -0.713,-0.601 -1.4095,-1.213 -2.0894,-1.834 -0.6799,-0.621 -1.3433,-1.252 -1.9901,-1.894 -0.6469,-0.641 -1.2772,-1.292 -1.891,-1.953 -0.6138,-0.661 -1.211,-1.332 -1.7917,-2.013 -0.5807,-0.68 -1.1448,-1.371 -1.6925,-2.072 -0.5476,-0.701 -1.0787,-1.411 -1.5932,-2.132 -0.5145,-0.721 -1.0125,-1.451 -1.494,-2.192 -0.4814,-0.74 -0.9464,-1.491 -1.3947,-2.251 -0.4484,-0.761 -0.8802,-1.531 -1.2955,-2.311 -0.4153,-0.781 -0.814,-1.571 -1.1962,-2.371 -0.3822,-0.8 -0.7479,-1.61 -1.097,-2.43 -0.3491,-0.82 -0.6816,-1.65 -0.9977,-2.49 -0.316,-0.84 -0.6154,-1.69 -0.8984,-2.55 -0.2829,-0.86 -0.54925,-1.73 -0.79907,-2.609 -0.24982,-0.88 -0.4831,-1.77 -0.69982,-2.669 -0.21672,-0.9 -0.4169,-1.809 -0.60052,-2.729 -0.46181,-2.053 -0.88824,-4.104 -1.27929,-6.154 -0.39105,-2.049 -0.74672,-4.096 -1.06701,-6.141 -0.32029,-2.045 -0.60521,-4.089 -0.85474,-6.13 -0.24954,-2.041 -0.46369,-4.08 -0.64247,-6.117 -0.17877,-2.037 -0.32217,-4.072 -0.43018,-6.105 -0.10802,-2.033 -0.18066,-4.064 -0.21791,-6.093 -0.03726,-2.029 -0.03914,-4.056 -0.00563,-6.081 0.0335,-2.025 0.10239,-4.047 0.20665,-6.068 0.10427,-2.021 0.24391,-4.04 0.41894,-6.057 0.17502,-2.016 0.38543,-4.031 0.63122,-6.044 0.24578,-2.013 0.52695,-4.023 0.8435,-6.032 0.31655,-2.009 0.66848,-4.015 1.0558,-6.02 0.38731,-2.005 0.81,-4.007 1.26808,-6.008 0.45808,-2 0.95153,-3.999 1.48037,-5.995 0.52888,-1.997 1.09308,-3.991 1.69268,-5.984 0.5996,-1.992 1.2346,-3.983 1.9049,-5.971 0.3493,-0.803 0.7054,-1.601 1.0683,-2.395 0.363,-0.794 0.7327,-1.583 1.1094,-2.3673 0.3766,-0.7845 0.76,-1.5643 1.1504,-2.3396 0.3903,-0.7752 0.7874,-1.5459 1.1914,-2.3119 0.404,-0.7661 0.8149,-1.5275 1.2326,-2.2843 0.4177,-0.7568 0.8422,-1.509 1.2736,-2.2566 0.4314,-0.7476 0.8696,-1.4906 1.3147,-2.229 0.4451,-0.7384 0.897,-1.4721 1.3558,-2.2013 0.4588,-0.7292 0.9244,-1.4537 1.3969,-2.1736 0.4724,-0.72 0.9518,-1.4353 1.4379,-2.146 0.4862,-0.7107 0.9792,-1.4169 1.4791,-2.1184 0.4999,-0.7015 1.0066,-1.3984 1.5201,-2.0907 0.5136,-0.6922 1.034,-1.3799 1.5613,-2.063 0.5273,-0.6831 1.0614,-1.3615 1.6023,-2.0354 0.541,-0.6739 1.0888,-1.3431 1.6435,-2.0078 0.5547,-0.6646 1.1162,-1.3247 1.6845,-1.9801 l 2.266,-2.1547 2.266,-2.1548 2.2659,-2.1548 2.266,-2.1547 2.2776,-2.1349 2.2777,-2.1349 2.2776,-2.1349 2.2777,-2.1349 2.2893,-2.1151 2.2893,-2.1151 2.2894,-2.115 2.2893,-2.1151 2.301,-2.0953 2.3009,-2.0953 2.301,-2.0952 2.301,-2.0953 -0.8071,-0.1476 -0.8072,-0.1475 -0.8089,-0.1322 -0.8089,-0.1322 -0.8107,-0.1168 -0.8106,-0.1168 -0.8125,-0.1015 -0.8124,-0.1014 -0.8142,-0.0861 -0.8142,-0.086 -0.816,-0.0707 -0.8159,-0.0707 -0.8177,-0.0553 -0.8177,-0.0553 -0.8195,-0.04 L 58.947,33.768 C 58.6863,33.6743 58.4309,33.5753 58.1806,33.4711 57.9303,33.367 57.6853,33.2576 57.4455,33.143 57.2057,33.0284 56.971,32.9087 56.7416,32.7837 56.5122,32.6587 56.2881,32.5285 56.0691,32.3931 55.8501,32.2576 55.6364,32.117 55.4278,31.9712 55.2193,31.8254 55.016,31.6743 54.8179,31.5181 54.6198,31.3618 54.4269,31.2004 54.2392,31.0337 54.0515,30.8671 53.8691,30.6952 53.6918,30.5181 53.5146,30.341 53.3425,30.1588 53.1757,29.9713 53.0089,29.7838 52.8473,29.5911 52.6909,29.3931 52.5345,29.1952 52.3833,28.9921 52.2374,28.7838 52.0914,28.5754 51.9507,28.3619 51.8151,28.1431 51.6796,27.9244 51.5493,27.7004 51.4242,27.4713 51.2991,27.2421 51.1792,27.0077 51.0645,26.7681 50.9499,26.5285 50.8404,26.2837 50.7362,26.0337 50.6319,25.7837 50.5329,25.5284 50.4391,25.268 50.3172,25.0099 50.1983,24.7511 50.0825,24.4914 49.9666,24.2318 49.8539,23.9713 49.7441,23.71 49.6344,23.4488 49.5278,23.1867 49.4242,22.9238 49.3206,22.661 49.22,22.3973 49.1225,22.1328 49.025,21.8684 48.9306,21.6031 48.8392,21.3371 48.7479,21.071 48.6596,20.8042 48.5743,20.5365 48.489,20.2688 48.4068,20.0004 48.3277,19.7311 48.2486,19.4619 48.1725,19.1918 48.0995,18.921 c -0.073,-0.2708 -0.143,-0.5425 -0.2099,-0.8149 -0.0669,-0.2725 -0.1307,-0.5457 -0.1915,-0.8197 -0.0607,-0.274 -0.1185,-0.5489 -0.1731,-0.8245 -0.0546,-0.2756 -0.1062,-0.552 -0.1547,-0.8292 -0.0486,-0.2773 -0.094,-0.5553 -0.1364,-0.8341 -0.0424,-0.2788 -0.0817,-0.5584 -0.118,-0.8387 -0.0363,-0.2804 -0.0695,-0.5616 -0.0996,-0.8436 -0.0301,-0.282 -0.0572,-0.5647 -0.0812,-0.8483 l 3.9875,-0.3104 3.9875,-0.3104 3.9743,-0.3645 3.9744,-0.3645 3.9611,-0.4187 3.9612,-0.4187 3.948,-0.47292 L 78.6771,9.135 82.6119,8.60794 86.5467,8.08087 90.4683,7.49961 94.39,6.91834 98.2985,6.28287 102.207,5.64739 106.102,4.9577 c 0,0 -2.443,-0.09764 0.159,-0.00861 z"
       fill="#030303"
       fill-rule="evenodd"
       opacity="1"
       stroke="none"
       id="path1-7-5"
       style="clip-rule:evenodd;fill:#434343;fill-opacity:1;fill-rule:nonzero;stroke-linecap:round;stroke-linejoin:round;stroke-miterlimit:10"
       transform="matrix(-0.56823581,0.19565927,0.19565927,0.56823581,305.04016,69.514675)" /><path
       d="m 106.261,4.94909 c 2.603,0.08903 4.822,0.1847 6.723,0.28699 1.901,0.1023 3.483,0.21123 4.81,0.32679 1.326,0.11557 2.397,0.23776 3.276,0.36659 0.88,0.12883 1.567,0.26429 2.125,0.40638 0.559,0.1421 0.989,0.29082 1.354,0.44618 0.366,0.15536 0.666,0.31735 0.964,0.48598 0.414,0.48969 0.814,0.98392 1.199,1.48271 0.385,0.49879 0.757,1.00213 1.114,1.50999 0.357,0.5079 0.7,1.0204 1.029,1.5374 0.329,0.5169 0.643,1.0385 0.944,1.5646 0.301,0.5261 0.587,1.0567 0.86,1.5919 0.272,0.5352 0.53,1.075 0.774,1.6193 0.245,0.5443 0.475,1.0931 0.691,1.6465 0.216,0.5534 0.417,1.1113 0.605,1.6738 0.188,0.5625 0.361,1.1296 0.521,1.7012 0.159,0.5716 0.305,1.1478 0.436,1.7285 0.131,0.5807 0.248,1.1659 0.351,1.7557 0.103,0.5898 0.192,1.1842 0.266,1.7831 0.075,0.5989 0.136,1.2024 0.182,1.8104 0.047,0.608 0.079,1.2205 0.097,1.8376 0.019,0.6171 0.023,1.2388 0.013,1.865 -0.01,0.6262 -0.034,1.257 -0.073,1.8923 -1.104,1.7983 -2.193,3.6021 -3.265,5.4113 -1.072,1.8092 -2.128,3.6238 -3.168,5.4439 -1.04,1.8201 -2.063,3.6456 -3.07,5.4765 -1.008,1.831 -1.999,3.6674 -2.973,5.5093 -0.975,1.8418 -1.933,3.6891 -2.875,5.5419 -0.943,1.8527 -1.868,3.7109 -2.778,5.5745 -0.91,1.8636 -1.803,3.7327 -2.68,5.6072 -0.877,1.8745 -1.738,3.7545 -2.583,5.6399 -0.844,1.8854 -1.673,3.7763 -2.485,5.6726 -0.812,1.8963 -1.608,3.798 -2.387,5.7052 -0.78,1.9072 -1.543,3.8198 -2.29,5.7379 -0.747,1.9181 -1.478,3.8416 -2.193,5.7708 -0.714,1.929 -1.412,3.863 -2.0944,5.803 -0.682,1.94 -1.3477,3.885 -1.9972,5.836 -0.6495,1.951 -1.2827,3.907 -1.8997,5.869 -0.6169,1.961 -1.2176,3.928 -1.802,5.901 -0.6225,-0.636 -1.2223,-1.28 -1.7995,-1.932 -0.5772,-0.652 -1.1318,-1.312 -1.6638,-1.979 -0.532,-0.667 -1.0414,-1.342 -1.5282,-2.025 -0.4867,-0.683 -0.9509,-1.374 -1.3925,-2.072 -0.4415,-0.698 -0.8604,-1.405 -1.2568,-2.118 -0.3963,-0.714 -0.77,-1.436 -1.1212,-2.165 -0.3511,-0.73 -0.6796,-1.467 -0.9855,-2.212 -0.3058,-0.745 -0.5891,-1.497 -0.8498,-2.258 -0.2607,-0.76 -0.4987,-1.528 -0.7142,-2.304 -0.2154,-0.776 -0.4083,-1.56 -0.5785,-2.351 -0.1702,-0.792 -0.3178,-1.591 -0.4428,-2.398 -0.125,-0.807 -0.2274,-1.6217 -0.3072,-2.4442 -0.0798,-0.8225 -0.1369,-1.6527 -0.1715,-2.4907 -0.0345,-0.8379 -0.0465,-1.6837 -0.0358,-2.5371 0.0107,-0.8535 0.044,-1.7148 0.0999,-2.5838 0.0559,-0.8689 0.1344,-1.7457 0.2355,-2.6302 l 0.4063,-1.6169 0.4063,-1.6169 0.4242,-1.6102 0.4243,-1.6103 0.4422,-1.6037 0.4422,-1.6036 0.4602,-1.5971 0.4601,-1.597 0.4782,-1.5905 0.4781,-1.5904 0.4962,-1.5839 0.4961,-1.5838 0.5141,-1.5772 0.5142,-1.5773 0.5321,-1.5706 L 88.9767,62.768 88.9141,62.6743 88.8516,62.5805 88.789,62.4868 88.7265,62.393 88.6639,62.2993 88.6013,62.2055 88.5388,62.1118 88.4762,62.018 88.4137,61.9243 88.3511,61.8305 88.2885,61.7368 88.226,61.643 88.1634,61.5493 88.1008,61.4555 88.0383,61.3618 87.9757,61.268 c -0.7468,0.4856 -1.4867,0.9785 -2.2196,1.4789 -0.733,0.5004 -1.459,1.0082 -2.1781,1.5234 -0.7191,0.5153 -1.4313,1.0379 -2.1365,1.5679 -0.7053,0.5301 -1.4036,1.0675 -2.095,1.6124 -0.6914,0.5449 -1.3759,1.0972 -2.0535,1.6569 -0.6775,0.5597 -1.3482,1.1268 -2.0119,1.7013 -0.6637,0.5745 -1.3205,1.1564 -1.9704,1.7458 -0.6498,0.5893 -1.2928,1.1861 -1.9288,1.7903 -0.636,0.6041 -1.2651,1.2157 -1.8873,1.8347 -0.6222,0.619 -1.2375,1.2454 -1.8458,1.8792 -0.6083,0.6339 -1.2098,1.2751 -1.8043,1.9237 -0.5945,0.6487 -1.182,1.3047 -1.7627,1.9682 -0.5807,0.6635 -1.1544,1.3343 -1.7212,2.0126 -0.5668,0.6783 -1.1267,1.364 -1.6797,2.0571 -0.553,0.6931 -1.0991,1.3937 -1.6382,2.1016 -0.5391,0.7079 -1.0714,1.4233 -1.5967,2.146 -2.183,2.7758 -4.2575,5.5682 -6.2237,8.3773 -1.9662,2.8087 -3.8239,5.6347 -5.5732,8.4767 -1.7494,2.843 -3.3903,5.701 -4.9228,8.577 -1.5325,2.875 -2.9567,5.767 -4.2723,8.676 -1.3157,2.909 -2.523,5.834 -3.6219,8.776 -1.0989,2.942 -2.0893,5.901 -2.9714,8.876 -0.882,2.975 -1.6556,5.967 -2.3208,8.975 -0.6653,3.009 -1.2221,6.034 -1.6705,9.075 -0.4483,3.042 -0.7883,6.1 -1.0199,9.175 -0.2315,3.075 -0.3547,6.167 -0.3694,9.275 -0.0147,3.108 0.079,6.233 0.2811,9.374 0.2021,3.141 0.5126,6.299 0.9316,9.474 0.4189,3.175 0.9463,6.366 1.5821,9.574 0.6358,3.208 1.38,6.432 2.2326,9.673 0.8526,3.241 1.8136,6.499 2.8831,9.773 1.0695,3.274 2.2473,6.565 3.5336,9.873 -0.0966,0.122 -0.195,0.238 -0.2952,0.348 -0.1002,0.11 -0.2021,0.215 -0.3059,0.314 -0.1037,0.099 -0.2093,0.192 -0.3166,0.28 -0.1073,0.088 -0.2164,0.17 -0.3273,0.246 -0.1108,0.077 -0.2235,0.148 -0.3379,0.213 -0.1145,0.065 -0.2307,0.124 -0.3487,0.178 -0.118,0.054 -0.2378,0.102 -0.3593,0.145 -0.1216,0.042 -0.2449,0.079 -0.37,0.11 -0.1252,0.032 -0.2521,0.057 -0.3808,0.077 -0.1286,0.02 -0.2591,0.035 -0.3914,0.043 -0.1322,0.009 -0.2662,0.012 -0.4021,0.009 -0.1358,-0.002 -0.2734,-0.011 -0.4127,-0.025 -0.1394,-0.014 -0.2806,-0.033 -0.4235,-0.058 -0.1429,-0.026 -0.2877,-0.057 -0.4342,-0.093 -0.1464,-0.037 -0.2947,-0.079 -0.4448,-0.127 -0.1501,-0.047 -0.3019,-0.101 -0.4555,-0.16 -0.713,-0.601 -1.4095,-1.213 -2.0894,-1.834 -0.6799,-0.621 -1.3433,-1.252 -1.9901,-1.894 -0.6469,-0.641 -1.2772,-1.292 -1.891,-1.953 -0.6138,-0.661 -1.211,-1.332 -1.7917,-2.013 -0.5807,-0.68 -1.1448,-1.371 -1.6925,-2.072 -0.5476,-0.701 -1.0787,-1.411 -1.5932,-2.132 -0.5145,-0.721 -1.0125,-1.451 -1.494,-2.192 -0.4814,-0.74 -0.9464,-1.491 -1.3947,-2.251 -0.4484,-0.761 -0.8802,-1.531 -1.2955,-2.311 -0.4153,-0.781 -0.814,-1.571 -1.1962,-2.371 -0.3822,-0.8 -0.7479,-1.61 -1.097,-2.43 -0.3491,-0.82 -0.6816,-1.65 -0.9977,-2.49 -0.316,-0.84 -0.6154,-1.69 -0.8984,-2.55 -0.2829,-0.86 -0.54925,-1.73 -0.79907,-2.609 -0.24982,-0.88 -0.4831,-1.77 -0.69982,-2.669 -0.21672,-0.9 -0.4169,-1.809 -0.60052,-2.729 -0.46181,-2.053 -0.88824,-4.104 -1.27929,-6.154 -0.39105,-2.049 -0.74672,-4.096 -1.06701,-6.141 -0.32029,-2.045 -0.60521,-4.089 -0.85474,-6.13 -0.24954,-2.041 -0.46369,-4.08 -0.64247,-6.117 -0.17877,-2.037 -0.32217,-4.072 -0.43018,-6.105 -0.10802,-2.033 -0.18066,-4.064 -0.21791,-6.093 -0.03726,-2.029 -0.03914,-4.056 -0.00563,-6.081 0.0335,-2.025 0.10239,-4.047 0.20665,-6.068 0.10427,-2.021 0.24391,-4.04 0.41894,-6.057 0.17502,-2.016 0.38543,-4.031 0.63122,-6.044 0.24578,-2.013 0.52695,-4.023 0.8435,-6.032 0.31655,-2.009 0.66848,-4.015 1.0558,-6.02 0.38731,-2.005 0.81,-4.007 1.26808,-6.008 0.45808,-2 0.95153,-3.999 1.48037,-5.995 0.52888,-1.997 1.09308,-3.991 1.69268,-5.984 0.5996,-1.992 1.2346,-3.983 1.9049,-5.971 0.3493,-0.803 0.7054,-1.601 1.0683,-2.395 0.363,-0.794 0.7327,-1.583 1.1094,-2.3673 0.3766,-0.7845 0.76,-1.5643 1.1504,-2.3396 0.3903,-0.7752 0.7874,-1.5459 1.1914,-2.3119 0.404,-0.7661 0.8149,-1.5275 1.2326,-2.2843 0.4177,-0.7568 0.8422,-1.509 1.2736,-2.2566 0.4314,-0.7476 0.8696,-1.4906 1.3147,-2.229 0.4451,-0.7384 0.897,-1.4721 1.3558,-2.2013 0.4588,-0.7292 0.9244,-1.4537 1.3969,-2.1736 0.4724,-0.72 0.9518,-1.4353 1.4379,-2.146 0.4862,-0.7107 0.9792,-1.4169 1.4791,-2.1184 0.4999,-0.7015 1.0066,-1.3984 1.5201,-2.0907 0.5136,-0.6922 1.034,-1.3799 1.5613,-2.063 0.5273,-0.6831 1.0614,-1.3615 1.6023,-2.0354 0.541,-0.6739 1.0888,-1.3431 1.6435,-2.0078 0.5547,-0.6646 1.1162,-1.3247 1.6845,-1.9801 l 2.266,-2.1547 2.266,-2.1548 2.2659,-2.1548 2.266,-2.1547 2.2776,-2.1349 2.2777,-2.1349 2.2776,-2.1349 2.2777,-2.1349 2.2893,-2.1151 2.2893,-2.1151 2.2894,-2.115 2.2893,-2.1151 2.301,-2.0953 2.3009,-2.0953 2.301,-2.0952 2.301,-2.0953 -0.8071,-0.1476 -0.8072,-0.1475 -0.8089,-0.1322 -0.8089,-0.1322 -0.8107,-0.1168 -0.8106,-0.1168 -0.8125,-0.1015 -0.8124,-0.1014 -0.8142,-0.0861 -0.8142,-0.086 -0.816,-0.0707 -0.8159,-0.0707 -0.8177,-0.0553 -0.8177,-0.0553 -0.8195,-0.04 L 58.947,33.768 C 58.6863,33.6743 58.4309,33.5753 58.1806,33.4711 57.9303,33.367 57.6853,33.2576 57.4455,33.143 57.2057,33.0284 56.971,32.9087 56.7416,32.7837 56.5122,32.6587 56.2881,32.5285 56.0691,32.3931 55.8501,32.2576 55.6364,32.117 55.4278,31.9712 55.2193,31.8254 55.016,31.6743 54.8179,31.5181 54.6198,31.3618 54.4269,31.2004 54.2392,31.0337 54.0515,30.8671 53.8691,30.6952 53.6918,30.5181 53.5146,30.341 53.3425,30.1588 53.1757,29.9713 53.0089,29.7838 52.8473,29.5911 52.6909,29.3931 52.5345,29.1952 52.3833,28.9921 52.2374,28.7838 52.0914,28.5754 51.9507,28.3619 51.8151,28.1431 51.6796,27.9244 51.5493,27.7004 51.4242,27.4713 51.2991,27.2421 51.1792,27.0077 51.0645,26.7681 50.9499,26.5285 50.8404,26.2837 50.7362,26.0337 50.6319,25.7837 50.5329,25.5284 50.4391,25.268 50.3172,25.0099 50.1983,24.7511 50.0825,24.4914 49.9666,24.2318 49.8539,23.9713 49.7441,23.71 49.6344,23.4488 49.5278,23.1867 49.4242,22.9238 49.3206,22.661 49.22,22.3973 49.1225,22.1328 49.025,21.8684 48.9306,21.6031 48.8392,21.3371 48.7479,21.071 48.6596,20.8042 48.5743,20.5365 48.489,20.2688 48.4068,20.0004 48.3277,19.7311 48.2486,19.4619 48.1725,19.1918 48.0995,18.921 c -0.073,-0.2708 -0.143,-0.5425 -0.2099,-0.8149 -0.0669,-0.2725 -0.1307,-0.5457 -0.1915,-0.8197 -0.0607,-0.274 -0.1185,-0.5489 -0.1731,-0.8245 -0.0546,-0.2756 -0.1062,-0.552 -0.1547,-0.8292 -0.0486,-0.2773 -0.094,-0.5553 -0.1364,-0.8341 -0.0424,-0.2788 -0.0817,-0.5584 -0.118,-0.8387 -0.0363,-0.2804 -0.0695,-0.5616 -0.0996,-0.8436 -0.0301,-0.282 -0.0572,-0.5647 -0.0812,-0.8483 l 3.9875,-0.3104 3.9875,-0.3104 3.9743,-0.3645 3.9744,-0.3645 3.9611,-0.4187 3.9612,-0.4187 3.948,-0.47292 L 78.6771,9.135 82.6119,8.60794 86.5467,8.08087 90.4683,7.49961 94.39,6.91834 98.2985,6.28287 102.207,5.64739 106.102,4.9577 c 0,0 -2.443,-0.09764 0.159,-0.00861 z"
       fill="#030303"
       fill-rule="evenodd"
       opacity="1"
       stroke="none"
       id="path1-7-2"
       style="clip-rule:evenodd;fill:#434343;fill-opacity:1;fill-rule:nonzero;stroke-linecap:round;stroke-linejoin:round;stroke-miterlimit:10"
       transform="matrix(0.51513862,0.30952654,0.30952654,-0.51513862,53.699754,250.38962)" /><path
       id="path1"
       style="display:inline;fill:#434343;fill-opacity:1;stroke:#000000;stroke-width:0.0352778;stroke-opacity:1"
       d="m 218.86778,0.04289144 c -4.09663,-0.09260491 -8.32976,-0.03972226 -10.30532,0.20722249 -6.87916,0.84666917 -11.57141,2.64555937 -14.07614,5.36194657 -2.8575,3.1044369 -3.2806,5.4684405 -2.57504,15.3814905 0.52916,7.866933 0.24694,10.547645 -1.5875,14.39292 -2.6811,5.714994 -8.57247,9.983889 -18.13274,13.158886 -8.14916,2.716387 -16.26344,3.668923 -21.20232,2.504757 -5.82083,-1.41111 -9.98324,-4.938758 -13.72268,-11.676807 -4.23333,-7.584714 -4.97437,-8.749338 -6.56187,-10.336836 -3.56305,-3.563053 -7.65512,-4.162535 -13.93455,-2.04587 -7.79639,2.64583 -19.226466,10.05393 -23.53035,15.275036 -2.504719,3.069163 -3.10472,4.586218 -3.10472,8.043437 0,3.704163 0.776253,5.4682 5.256527,12.135693 3.563049,5.291661 4.938923,7.867051 5.679753,10.68927 2.01083,7.655271 -1.869931,16.545393 -11.32437,26.035104 -10.47749,10.512769 -19.084909,13.123019 -28.539343,8.678019 -1.164166,-0.56445 -4.339377,-2.32827 -7.09104,-3.98632 -5.891383,-3.52777 -8.113858,-4.339193 -11.253577,-4.092253 -2.892775,0.246943 -5.362294,1.587713 -8.184513,4.445203 -4.303885,4.33917 -10.301218,14.71074 -12.805937,22.11907 -0.987777,2.96332 -1.19941,4.05695 -1.19941,6.87916 -0.03528,2.96333 0.07046,3.56292 0.952397,5.32681 1.622776,3.31611 3.845353,5.04462 11.359513,8.8899 3.704162,1.86972 7.62007,4.12756 8.71368,5.00951 6.632215,5.32694 8.21996,14.5696 4.833297,28.08097 -2.681109,10.6186 -6.949625,17.53351 -12.594064,20.39101 -4.021663,2.04611 -5.397922,2.25746 -14.711246,2.32802 -6.56166,0.0705 -8.854308,0.21176 -10.159587,0.6351 C 2.4696966,205.99 0,211.81107 0,225.25188 c 0,15.62805 2.8928198,23.67109 9.3839233,26.14053 2.0108317,0.74084 2.3283077,0.7761 11.2535767,0.52916 10.371656,-0.28222 12.311879,-0.035 16.157153,2.04639 5.679717,2.99861 10.654133,10.97126 13.299964,21.20181 2.32833,9.10165 2.151941,15.73392 -0.529167,21.02559 -2.046109,4.05694 -5.115526,6.66743 -12.770797,10.86548 -6.067772,3.38666 -8.325488,5.1856 -9.807153,7.86671 -0.917222,1.69333 -1.058333,2.22298 -1.058333,4.90409 0.03528,3.66889 0.811529,6.24417 3.669026,12.17083 1.904998,3.91583 5.997328,10.51244 8.043437,13.05244 0.493889,0.56445 2.010525,2.22278 3.386357,3.63388 4.69194,4.7625 9.277991,6.13796 14.040486,4.19768 1.09361,-0.45861 4.409726,-2.46899 7.408334,-4.47983 7.725825,-5.18582 10.548198,-6.35 15.310693,-6.35 5.185828,0 10.195318,2.11623 16.792257,7.12566 4.833047,3.66889 8.290253,7.23195 11.253573,11.64167 3.21028,4.79778 4.4449,8.78428 4.1274,13.3351 -0.28222,4.09222 -1.76368,7.72594 -5.60896,13.86427 -0.98778,1.5875 -2.36351,4.0923 -3.06906,5.53868 -1.12889,2.36361 -1.27021,2.96317 -1.27021,5.46789 0.0353,3.52777 0.84664,5.36233 3.84524,8.5726 5.36223,5.71499 14.88745,11.57121 23.49521,14.39344 2.43417,0.77611 3.66872,0.98753 6.52622,0.98753 3.06916,0.0353 3.73962,-0.0705 5.11545,-0.81132 2.92805,-1.51694 4.51563,-3.63352 8.18451,-11.00656 2.04612,-4.09222 4.09188,-7.69083 5.11493,-8.92555 3.45722,-4.26861 8.14928,-6.49087 14.39344,-6.80837 3.98638,-0.21167 13.72323,0.67004 16.75712,1.5167 7.58471,2.08139 13.72302,5.85626 16.54524,10.01903 2.89278,4.37444 3.73923,8.36084 3.49229,16.40416 -0.35278,10.15999 0.9173,13.89979 5.53868,16.5809 1.905,1.09361 7.47883,2.82206 10.86549,3.35122 3.91584,0.635 14.88706,0.24698 19.22622,-0.67024 6.38527,-1.34056 10.40739,-4.05682 11.92433,-7.97264 0.77611,-2.01083 0.88161,-6.10324 0.35244,-14.64045 -0.49389,-8.3961 0.77607,-12.27668 5.43274,-16.93334 3.06916,-3.06916 4.69195,-4.09226 11.64167,-7.26725 6.56166,-2.96334 8.29027,-3.5632 12.17083,-4.1982 9.0311,-1.48166 15.38132,0.10615 20.32021,5.08031 2.18721,2.2225 3.42211,4.09205 7.76128,11.81789 1.86972,3.35137 4.47987,6.31448 6.45542,7.33753 2.82222,1.44639 8.60782,1.12934 14.14642,-0.77566 5.43278,-1.86972 14.1816,-7.37353 18.80299,-11.78326 2.2225,-2.11666 3.21041,-3.38639 4.19819,-5.36195 1.19945,-2.46943 1.23459,-2.71626 1.09348,-5.3268 -0.24694,-3.56306 -0.88157,-4.93907 -5.25601,-11.46545 -3.88055,-5.78556 -4.93903,-7.76088 -5.7857,-11.04171 -0.70556,-2.78694 -0.67031,-5.15097 0.14108,-8.36124 0.91722,-3.63361 2.29314,-6.2087 6.59701,-12.48813 9.17222,-13.40555 19.79064,-18.90872 29.95063,-15.52205 1.69333,0.56444 4.97424,2.22227 8.18451,4.16254 6.91445,4.09222 9.13723,5.00951 12.10056,5.00951 4.2686,0.0353 7.69022,-2.32834 13.05243,-8.99583 4.40972,-5.50334 7.65553,-11.46525 9.5958,-17.60358 0.635,-2.04611 0.81132,-3.4574 0.81132,-6.17378 0,-3.13972 -0.10573,-3.70403 -0.9524,-5.32681 -1.65805,-3.13972 -4.19827,-5.08011 -11.32437,-8.5726 -3.84528,-1.905 -7.26709,-3.84539 -8.50181,-4.86844 -3.88055,-3.13973 -6.06761,-7.40817 -6.52622,-12.87622 -0.28222,-3.28083 0.10567,-11.67705 0.70539,-14.9226 0.91722,-5.00944 3.7392,-12.13532 6.2792,-15.8042 1.5875,-2.32833 4.65687,-5.00935 7.09104,-6.24407 3.45722,-1.72861 5.89123,-2.11666 14.46372,-2.11666 9.77194,0 11.88854,-0.52949 14.56965,-3.49281 2.82222,-3.10445 3.881,-6.98504 4.516,-16.26309 0.9525,-14.35804 -2.04615,-24.16524 -8.32559,-27.12858 -2.32833,-1.09361 -5.11569,-1.26969 -12.59458,-0.74052 -7.97277,0.56444 -10.75965,0.28208 -14.56965,-1.55236 -4.65667,-2.18723 -7.65511,-5.71511 -11.28872,-13.33511 -2.18721,-4.62138 -3.81003,-9.98368 -4.62142,-15.59284 -1.51694,-10.40694 1.41122,-17.67397 9.10177,-22.5423 1.02305,-0.67028 3.98622,-2.36385 6.52622,-3.77496 5.36221,-2.92806 7.54961,-4.86841 8.81961,-7.65535 1.83444,-4.02166 1.09375,-8.46661 -2.68097,-16.15715 -6.56166,-13.299713 -14.3232,-21.342883 -20.53208,-21.342883 -3.21028,0 -5.36185,0.952298 -11.60601,5.079794 -3.21027,2.116666 -6.66744,4.23347 -7.69049,4.72736 -9.31333,4.268599 -18.69767,1.129109 -29.916,-9.98337 -7.58471,-7.514159 -10.72441,-13.370458 -10.72441,-19.932117 0,-4.621384 1.02326,-7.408583 5.50354,-14.887463 3.77472,-6.244161 4.51536,-8.148756 4.55063,-11.21792 0,-2.257776 -0.14074,-2.963611 -1.02268,-4.69222 -2.11667,-4.162774 -8.50237,-9.172124 -17.35708,-13.652397 -6.73804,-3.421945 -10.75969,-4.69209 -14.95774,-4.72736 -6.31472,-0.0353 -8.3255,1.763757 -13.51132,12.205973 -2.89278,5.820827 -3.77476,7.267397 -5.67976,9.348784 -5.11526,5.538605 -12.48811,7.267185 -23.21254,5.432743 -12.91165,-2.222498 -22.15431,-7.19657 -25.43514,-13.652397 -1.90499,-3.774719 -2.08159,-4.974144 -2.32854,-14.957743 C 239.35976,10.233693 239.28906,9.4223023 238.54823,7.7995239 236.92545,4.2011875 233.57409,1.8726528 228.35299,0.70848389 226.92424,0.37334922 222.9644,0.13549635 218.86778,0.04289144 Z M 216.22246,71.270068 c 2.4104,-0.02484 5.18301,-0.0083 7.96334,0.04238 5.56064,0.101424 11.15226,0.339826 13.9392,0.657324 17.3919,2.081384 32.77302,6.526128 47.90715,13.828614 16.75692,8.078594 29.77437,17.427244 42.75657,30.691664 22.613,23.14216 36.51285,51.96471 40.92256,84.80826 1.44639,10.72442 1.34035,27.55196 -0.21187,39.15833 -7.19665,53.16351 -43.42684,99.27151 -93.45063,118.85063 -16.19246,6.34999 -30.76218,9.41938 -48.43632,10.26604 -38.4527,1.76389 -76.37652,-11.60652 -105.55118,-37.28868 C 92.251623,306.038 74.435931,269.73695 71.613717,229.52036 68.191773,180.51963 90.981641,131.41279 131.05712,101.46202 c 1.70423,-1.27185 3.4369,-2.409139 5.15834,-3.597709 l 19.2319,19.235519 c -6.30103,15.20033 0.90865,32.62991 16.10754,38.93509 v 106.14856 c -3.61796,1.50381 -6.90792,3.6993 -9.67589,6.47299 -11.62953,11.62512 -11.62953,30.48187 0,42.10699 11.62466,11.62688 30.47665,11.62688 42.1013,0 14.38977,-14.38951 10.4067,-38.64759 -7.80262,-47.6989 V 158.07407 l 39.7893,39.77742 c -4.5375,11.09439 -1.98789,23.83232 6.48436,32.31844 11.63816,11.62608 30.4983,11.62608 42.13645,0 11.62688,-11.62465 11.62688,-30.47872 0,-42.10337 -8.03704,-8.0454 -19.95923,-10.79205 -30.70666,-7.08794 l -42.82839,-42.81651 c 3.6993,-10.74421 0.95784,-22.65897 -7.07605,-30.70097 -7.98792,-7.982264 -19.80669,-10.744415 -30.50408,-7.1391 L 158.23324,85.081112 c 16.00421,-7.492225 33.11759,-11.937427 52.19888,-13.605371 1.33173,-0.114653 3.37994,-0.180834 5.79034,-0.205673 z" /></g><metadata
     id="metadata1"><rdf:RDF><cc:Work
         rdf:about=""><dc:title>Git PDM icon</dc:title></cc:Work></rdf:RDF></metadata></svg>
